<svg xmlns="http://www.w3.org/2000/svg" xmlns:xlink="http://www.w3.org/1999/xlink" width="500" zoomAndPan="magnify" viewBox="0 0 375 374.999991" height="500" preserveAspectRatio="xMidYMid meet" version="1.0"><defs><g/><clipPath id="eef0b5a2f9"><path d="M 87.871094 100.367188 L 221 100.367188 L 221 198.617188 L 87.871094 198.617188 Z M 87.871094 100.367188 " clip-rule="nonzero"/></clipPath><clipPath id="26ff9d3889"><path d="M 187 100.367188 L 276.871094 100.367188 L 276.871094 198.617188 L 187 198.617188 Z M 187 100.367188 " clip-rule="nonzero"/></clipPath><clipPath id="b7b9675751"><rect x="0" width="203" y="0" height="43"/></clipPath></defs><rect x="-37.5" width="450" fill="#ffffff" y="-37.499999" height="449.999989" fill-opacity="1"/><rect x="-37.5" width="450" fill="#ffffff" y="-37.499999" height="449.999989" fill-opacity="1"/><g clip-path="url(#eef0b5a2f9)"><path fill="#000000" d="M 156.410156 100.367188 L 87.898438 198.773438 L 159.074219 198.773438 L 179.769531 169.046875 L 172.898438 158.019531 L 152.839844 186.832031 L 110.761719 186.832031 L 156.039062 121.796875 L 205.675781 198.773438 L 220.125 198.773438 Z M 156.410156 100.367188 " fill-opacity="1" fill-rule="nonzero"/></g><g clip-path="url(#26ff9d3889)"><path fill="#004aad" d="M 213.039062 100.367188 L 187.425781 137.15625 L 194.417969 148.003906 L 212.664062 121.796875 L 262.351562 198.773438 L 276.574219 198.773438 Z M 213.039062 100.367188 " fill-opacity="1" fill-rule="nonzero"/></g><g transform="matrix(1, 0, 0, 1, 86, 213)"><g clip-path="url(#b7b9675751)"><g fill="#000000" fill-opacity="1"><g transform="translate(0.500075, 32.172494)"><g><path d="M 3.53125 -28.140625 C 3.53125 -28.421875 3.671875 -28.5625 3.953125 -28.5625 L 6.671875 -28.5625 C 7.015625 -28.5625 7.238281 -28.421875 7.34375 -28.140625 L 15.875 -8.90625 L 16 -8.90625 L 24.359375 -28.140625 C 24.472656 -28.421875 24.695312 -28.5625 25.03125 -28.5625 L 27.765625 -28.5625 C 28.046875 -28.5625 28.1875 -28.421875 28.1875 -28.140625 L 28.1875 -0.421875 C 28.1875 -0.140625 28.046875 0 27.765625 0 L 25.109375 0 C 24.835938 0 24.703125 -0.140625 24.703125 -0.421875 L 24.703125 -20.28125 L 24.5625 -20.28125 L 17.46875 -4.578125 C 17.332031 -4.242188 17.082031 -4.078125 16.71875 -4.078125 L 15.03125 -4.078125 C 14.644531 -4.078125 14.378906 -4.242188 14.234375 -4.578125 L 7.140625 -20.28125 L 7.015625 -20.28125 L 7.015625 -0.421875 C 7.015625 -0.140625 6.875 0 6.59375 0 L 3.953125 0 C 3.671875 0 3.53125 -0.140625 3.53125 -0.421875 Z M 3.53125 -28.140625 "/></g></g></g><g fill="#000000" fill-opacity="1"><g transform="translate(32.209282, 32.172494)"><g><path d="M 3.53125 -28.140625 C 3.53125 -28.421875 3.671875 -28.5625 3.953125 -28.5625 L 6.84375 -28.5625 C 7.125 -28.5625 7.265625 -28.421875 7.265625 -28.140625 L 7.265625 -13.265625 L 19.40625 -28.1875 C 19.570312 -28.4375 19.796875 -28.5625 20.078125 -28.5625 L 23.515625 -28.5625 C 23.660156 -28.5625 23.753906 -28.507812 23.796875 -28.40625 C 23.835938 -28.3125 23.800781 -28.195312 23.6875 -28.0625 L 14.78125 -17.34375 L 24.5625 -0.46875 C 24.757812 -0.15625 24.675781 0 24.3125 0 L 20.953125 0 C 20.703125 0 20.507812 -0.125 20.375 -0.375 L 12.34375 -14.453125 L 7.265625 -8.3125 L 7.265625 -0.421875 C 7.265625 -0.140625 7.125 0 6.84375 0 L 3.953125 0 C 3.671875 0 3.53125 -0.140625 3.53125 -0.421875 Z M 3.53125 -28.140625 "/></g></g></g><g fill="#004aad" fill-opacity="1"><g transform="translate(58.091832, 32.172494)"><g><path d="M 7.265625 -3.734375 C 7.265625 -3.566406 7.347656 -3.484375 7.515625 -3.484375 L 12.765625 -3.484375 C 14.503906 -3.484375 15.90625 -3.785156 16.96875 -4.390625 C 18.03125 -4.992188 18.800781 -5.992188 19.28125 -7.390625 C 19.363281 -7.640625 19.445312 -7.929688 19.53125 -8.265625 C 19.613281 -8.609375 19.675781 -9.035156 19.71875 -9.546875 C 19.757812 -10.066406 19.789062 -10.703125 19.8125 -11.453125 C 19.84375 -12.210938 19.859375 -13.15625 19.859375 -14.28125 C 19.859375 -15.394531 19.84375 -16.332031 19.8125 -17.09375 C 19.789062 -17.851562 19.757812 -18.488281 19.71875 -19 C 19.675781 -19.519531 19.613281 -19.945312 19.53125 -20.28125 C 19.445312 -20.625 19.363281 -20.921875 19.28125 -21.171875 C 18.800781 -22.566406 18.03125 -23.566406 16.96875 -24.171875 C 15.90625 -24.773438 14.503906 -25.078125 12.765625 -25.078125 L 7.515625 -25.078125 C 7.347656 -25.078125 7.265625 -24.992188 7.265625 -24.828125 Z M 3.53125 -28.140625 C 3.53125 -28.421875 3.671875 -28.5625 3.953125 -28.5625 L 13.5625 -28.5625 C 18.46875 -28.5625 21.578125 -26.53125 22.890625 -22.46875 C 23.003906 -22.070312 23.109375 -21.664062 23.203125 -21.25 C 23.304688 -20.832031 23.390625 -20.316406 23.453125 -19.703125 C 23.523438 -19.085938 23.570312 -18.34375 23.59375 -17.46875 C 23.625 -16.601562 23.640625 -15.539062 23.640625 -14.28125 C 23.640625 -13.019531 23.625 -11.953125 23.59375 -11.078125 C 23.570312 -10.210938 23.523438 -9.472656 23.453125 -8.859375 C 23.390625 -8.242188 23.304688 -7.722656 23.203125 -7.296875 C 23.109375 -6.878906 23.003906 -6.476562 22.890625 -6.09375 C 21.578125 -2.03125 18.46875 0 13.5625 0 L 3.953125 0 C 3.671875 0 3.53125 -0.140625 3.53125 -0.421875 Z M 3.53125 -28.140625 "/></g></g></g><g fill="#004aad" fill-opacity="1"><g transform="translate(84.257186, 32.172494)"><g><path d="M 3.53125 -28.140625 C 3.53125 -28.421875 3.671875 -28.5625 3.953125 -28.5625 L 6.84375 -28.5625 C 7.125 -28.5625 7.265625 -28.421875 7.265625 -28.140625 L 7.265625 -0.421875 C 7.265625 -0.140625 7.125 0 6.84375 0 L 3.953125 0 C 3.671875 0 3.53125 -0.140625 3.53125 -0.421875 Z M 3.53125 -28.140625 "/></g></g></g><g fill="#004aad" fill-opacity="1"><g transform="translate(95.050916, 32.172494)"><g><path d="M 3.28125 -6.21875 C 3.132812 -6.632812 3.019531 -7.066406 2.9375 -7.515625 C 2.851562 -7.960938 2.773438 -8.488281 2.703125 -9.09375 C 2.640625 -9.695312 2.59375 -10.414062 2.5625 -11.25 C 2.53125 -12.09375 2.515625 -13.101562 2.515625 -14.28125 C 2.515625 -15.457031 2.53125 -16.460938 2.5625 -17.296875 C 2.59375 -18.140625 2.640625 -18.863281 2.703125 -19.46875 C 2.773438 -20.070312 2.851562 -20.597656 2.9375 -21.046875 C 3.019531 -21.492188 3.132812 -21.925781 3.28125 -22.34375 C 4.007812 -24.550781 5.210938 -26.210938 6.890625 -27.328125 C 8.566406 -28.453125 10.625 -29.015625 13.0625 -29.015625 C 14.320312 -29.015625 15.453125 -28.867188 16.453125 -28.578125 C 17.460938 -28.285156 18.359375 -27.878906 19.140625 -27.359375 C 19.929688 -26.847656 20.609375 -26.25 21.171875 -25.5625 C 21.734375 -24.875 22.191406 -24.140625 22.546875 -23.359375 C 22.691406 -23.097656 22.648438 -22.898438 22.421875 -22.765625 L 19.90625 -21.546875 C 19.65625 -21.410156 19.457031 -21.476562 19.3125 -21.75 C 18.613281 -23.039062 17.773438 -23.992188 16.796875 -24.609375 C 15.816406 -25.222656 14.570312 -25.53125 13.0625 -25.53125 C 11.4375 -25.53125 10.113281 -25.164062 9.09375 -24.4375 C 8.070312 -23.71875 7.335938 -22.671875 6.890625 -21.296875 C 6.804688 -21.046875 6.722656 -20.738281 6.640625 -20.375 C 6.554688 -20.007812 6.492188 -19.5625 6.453125 -19.03125 C 6.410156 -18.5 6.375 -17.847656 6.34375 -17.078125 C 6.3125 -16.304688 6.296875 -15.375 6.296875 -14.28125 C 6.296875 -13.1875 6.3125 -12.253906 6.34375 -11.484375 C 6.375 -10.710938 6.410156 -10.0625 6.453125 -9.53125 C 6.492188 -9 6.554688 -8.550781 6.640625 -8.1875 C 6.722656 -7.820312 6.804688 -7.515625 6.890625 -7.265625 C 7.335938 -5.890625 8.070312 -4.835938 9.09375 -4.109375 C 10.113281 -3.390625 11.4375 -3.03125 13.0625 -3.03125 C 14.519531 -3.03125 15.789062 -3.378906 16.875 -4.078125 C 17.96875 -4.773438 18.738281 -5.796875 19.1875 -7.140625 C 19.332031 -7.617188 19.457031 -8.21875 19.5625 -8.9375 C 19.675781 -9.664062 19.734375 -10.566406 19.734375 -11.640625 C 19.734375 -11.804688 19.648438 -11.890625 19.484375 -11.890625 L 13.9375 -11.890625 C 13.664062 -11.890625 13.53125 -12.03125 13.53125 -12.3125 L 13.53125 -14.734375 C 13.53125 -15.015625 13.664062 -15.15625 13.9375 -15.15625 L 23.0625 -15.15625 C 23.34375 -15.15625 23.484375 -15.015625 23.484375 -14.734375 L 23.484375 -12.59375 C 23.484375 -11.3125 23.414062 -10.113281 23.28125 -9 C 23.15625 -7.894531 22.984375 -6.992188 22.765625 -6.296875 C 22.066406 -4.117188 20.867188 -2.445312 19.171875 -1.28125 C 17.472656 -0.113281 15.4375 0.46875 13.0625 0.46875 C 10.625 0.46875 8.566406 -0.0859375 6.890625 -1.203125 C 5.210938 -2.328125 4.007812 -4 3.28125 -6.21875 Z M 3.28125 -6.21875 "/></g></g></g><g fill="#004aad" fill-opacity="1"><g transform="translate(121.048272, 32.172494)"><g><path d="M 3.53125 -28.140625 C 3.53125 -28.421875 3.671875 -28.5625 3.953125 -28.5625 L 6.84375 -28.5625 C 7.125 -28.5625 7.265625 -28.421875 7.265625 -28.140625 L 7.265625 -0.421875 C 7.265625 -0.140625 7.125 0 6.84375 0 L 3.953125 0 C 3.671875 0 3.53125 -0.140625 3.53125 -0.421875 Z M 3.53125 -28.140625 "/></g></g></g><g fill="#004aad" fill-opacity="1"><g transform="translate(131.842001, 32.172494)"><g><path d="M 9.828125 0 C 9.546875 0 9.40625 -0.140625 9.40625 -0.421875 L 9.40625 -24.828125 C 9.40625 -24.992188 9.320312 -25.078125 9.15625 -25.078125 L 1.34375 -25.078125 C 1.0625 -25.078125 0.921875 -25.21875 0.921875 -25.5 L 0.921875 -28.140625 C 0.921875 -28.421875 1.0625 -28.5625 1.34375 -28.5625 L 21.203125 -28.5625 C 21.484375 -28.5625 21.625 -28.421875 21.625 -28.140625 L 21.625 -25.5 C 21.625 -25.21875 21.484375 -25.078125 21.203125 -25.078125 L 13.390625 -25.078125 C 13.222656 -25.078125 13.140625 -24.992188 13.140625 -24.828125 L 13.140625 -0.421875 C 13.140625 -0.140625 13 0 12.71875 0 Z M 9.828125 0 "/></g></g></g><g fill="#004aad" fill-opacity="1"><g transform="translate(154.395439, 32.172494)"><g><path d="M 17.296875 -10.078125 L 12.8125 -23.0625 L 12.71875 -23.0625 L 8.1875 -10.078125 Z M 10.921875 -28.140625 C 11.003906 -28.421875 11.171875 -28.5625 11.421875 -28.5625 L 14.15625 -28.5625 C 14.4375 -28.5625 14.617188 -28.421875 14.703125 -28.140625 L 24.484375 -0.421875 C 24.566406 -0.140625 24.46875 0 24.1875 0 L 21.25 0 C 20.96875 0 20.785156 -0.140625 20.703125 -0.421875 L 18.515625 -6.640625 L 6.96875 -6.640625 L 4.78125 -0.421875 C 4.675781 -0.140625 4.492188 0 4.234375 0 L 1.296875 0 C 1.015625 0 0.921875 -0.140625 1.015625 -0.421875 Z M 10.921875 -28.140625 "/></g></g></g><g fill="#004aad" fill-opacity="1"><g transform="translate(179.888802, 32.172494)"><g><path d="M 3.53125 -28.140625 C 3.53125 -28.421875 3.671875 -28.5625 3.953125 -28.5625 L 6.84375 -28.5625 C 7.125 -28.5625 7.265625 -28.421875 7.265625 -28.140625 L 7.265625 -3.734375 C 7.265625 -3.566406 7.347656 -3.484375 7.515625 -3.484375 L 21.125 -3.484375 C 21.40625 -3.484375 21.546875 -3.34375 21.546875 -3.0625 L 21.546875 -0.421875 C 21.546875 -0.140625 21.40625 0 21.125 0 L 3.953125 0 C 3.671875 0 3.53125 -0.140625 3.53125 -0.421875 Z M 3.53125 -28.140625 "/></g></g></g></g></g></svg>